{
  "asset": {
    "version": "2.0",
    "generator": "THREE.GLTFExporter"
  },
  "scenes": [
    {
      "nodes": [
        6
      ],
      "name": "AuxScene"
    }
  ],
  "scene": 0,
  "nodes": [
    {
      "matrix": [
        9.98943254581185,
        0,
        0,
        0,
        0,
        9.98943254581185,
        0,
        0,
        0,
        0,
        9.98943254581185,
        0,
        0,
        0,
        0,
        1
      ],
      "extras": {
        "groupId": 1,
        "scale": 9.98943254581185
      },
      "mesh": 0
    },
    {
      "matrix": [
        -0.9848034413991213,
        -0.005491660991116719,
        -0.1735858607997872,
        0,
        -0.17362980392588614,
        0.008917335856750747,
        0.9847706261319594,
        0,
        -0.0038601023686941887,
        0.9999451668432235,
        -0.009735345829959616,
        0,
        -2.8862550258636475,
        7.820146083831787,
        5.408148288726807,
        1
      ],
      "name": "STL_BINARY",
      "extras": {
        "$type": "AssemGroup",
        "groupId": 1,
        "debugInfo": "<div style=\"color: #FFC200;\">LOCKED</div>"
      },
      "children": [
        0
      ]
    },
    {
      "matrix": [
        3.370761581822049,
        0,
        0,
        0,
        0,
        3.370761581822049,
        0,
        0,
        0,
        0,
        3.370761581822049,
        0,
        0,
        0,
        0,
        1
      ],
      "extras": {
        "groupId": 2,
        "scale": 3.370761581822049
      },
      "mesh": 1
    },
    {
      "matrix": [
        -0.9848033468721437,
        -0.005493508348956634,
        -0.17358581638391996,
        0,
        0.15573746320413276,
        -0.470291162214813,
        -0.8686609874424781,
        0,
        -0.07686389072269598,
        -0.88249419694024,
        0.4639999276028757,
        0,
        -3.256885528564453,
        12.123839378356934,
        -2.1205251216888428,
        1
      ],
      "name": "STL_BINARY",
      "extras": {
        "$type": "AssemGroup",
        "groupId": 2,
        "debugInfo": "<div style=\"color: #00FF00;\">Mass: 1Kg</div>"
      },
      "children": [
        2
      ]
    },
    {
      "matrix": [
        6.555282722170232,
        0,
        0,
        0,
        0,
        6.555282722170232,
        0,
        0,
        0,
        0,
        6.555282722170232,
        0,
        0,
        0,
        0,
        1
      ],
      "extras": {
        "groupId": 3,
        "scale": 6.555282722170232
      },
      "mesh": 2
    },
    {
      "matrix": [
        0.9338644566813304,
        -0.07922670741888022,
        -0.3487410312669838,
        0,
        0.352924580239553,
        0.36178107280754246,
        0.862878130935373,
        0,
        0.05780492319110905,
        -0.9288904998273989,
        0.3658155359936099,
        0,
        -1.7365913391113281,
        3.271953582763672,
        1.8979130983352661,
        1
      ],
      "name": "STL_BINARY",
      "extras": {
        "$type": "AssemGroup",
        "groupId": 3,
        "debugInfo": "<div style=\"color: #00FF00;\">Mass: 1Kg</div>"
      },
      "children": [
        4
      ]
    },
    {
      "children": [
        1,
        3,
        5
      ]
    }
  ],
  "meshes": [
    {
      "primitives": [
        {
          "mode": 4,
          "attributes": {
            "POSITION": 0,
            "NORMAL": 1,
            "COLOR_0": 2
          },
          "material": 0
        }
      ]
    },
    {
      "primitives": [
        {
          "mode": 4,
          "attributes": {
            "POSITION": 3,
            "NORMAL": 4,
            "COLOR_0": 5
          },
          "material": 1
        }
      ]
    },
    {
      "primitives": [
        {
          "mode": 4,
          "attributes": {
            "POSITION": 6,
            "NORMAL": 7,
            "COLOR_0": 8
          },
          "material": 2
        }
      ]
    }
  ],
  "materials": [
    {
      "pbrMetallicRoughness": {
        "baseColorFactor": [
          0.3764705882352941,
          0.5137254901960784,
          0.7607843137254902,
          1
        ],
        "metallicFactor": 0.5,
        "roughnessFactor": 0.5
      }
    },
    {
      "pbrMetallicRoughness": {
        "baseColorFactor": [
          0.3764705882352941,
          0.5137254901960784,
          0.7607843137254902,
          1
        ],
        "metallicFactor": 0.5,
        "roughnessFactor": 0.5
      }
    },
    {
      "pbrMetallicRoughness": {
        "baseColorFactor": [
          0.3764705882352941,
          0.5137254901960784,
          0.7607843137254902,
          1
        ],
        "metallicFactor": 0.5,
        "roughnessFactor": 0.5
      }
    }
  ],
  "accessors": [
    {
      "bufferView": 0,
      "componentType": 5126,
      "count": 4110,
      "max": [
        0.26510360836982727,
        0.9105383157730103,
        0.4432867467403412
      ],
      "min": [
        -0.2854782044887543,
        -0.7414374351501465,
        -0.6528716087341309
      ],
      "type": "VEC3"
    },
    {
      "bufferView": 1,
      "componentType": 5126,
      "count": 4110,
      "max": [
        1,
        1,
        1
      ],
      "min": [
        -1,
        -1,
        -1
      ],
      "type": "VEC3"
    },
    {
      "bufferView": 2,
      "componentType": 5126,
      "count": 4110,
      "max": [
        1,
        1,
        1
      ],
      "min": [
        1,
        1,
        1
      ],
      "type": "VEC3"
    },
    {
      "bufferView": 3,
      "componentType": 5126,
      "count": 1452,
      "max": [
        0.31164494156837463,
        0.6018244028091431,
        0.8796172142028809
      ],
      "min": [
        -0.1926921308040619,
        -0.4364466071128845,
        -0.5930766463279724
      ],
      "type": "VEC3"
    },
    {
      "bufferView": 4,
      "componentType": 5126,
      "count": 1452,
      "max": [
        1,
        0.9991350173950195,
        0.998960018157959
      ],
      "min": [
        -1,
        -0.9995369911193848,
        -0.998960018157959
      ],
      "type": "VEC3"
    },
    {
      "bufferView": 5,
      "componentType": 5126,
      "count": 1452,
      "max": [
        1,
        1,
        1
      ],
      "min": [
        1,
        1,
        1
      ],
      "type": "VEC3"
    },
    {
      "bufferView": 6,
      "componentType": 5126,
      "count": 1476,
      "max": [
        0.038137178868055344,
        0.30572253465652466,
        0.6856171488761902
      ],
      "min": [
        -0.038137178868055344,
        -0.39549970626831055,
        -0.953345000743866
      ],
      "type": "VEC3"
    },
    {
      "bufferView": 7,
      "componentType": 5126,
      "count": 1476,
      "max": [
        1,
        0.9999340176582336,
        0.9994699954986572
      ],
      "min": [
        -1,
        -0.9999340176582336,
        -0.9994699954986572
      ],
      "type": "VEC3"
    },
    {
      "bufferView": 8,
      "componentType": 5126,
      "count": 1476,
      "max": [
        1,
        1,
        1
      ],
      "min": [
        1,
        1,
        1
      ],
      "type": "VEC3"
    }
  ],
  "bufferViews": [
    {
      "buffer": 0,
      "byteOffset": 0,
      "byteLength": 49320,
      "target": 34962,
      "byteStride": 12
    },
    {
      "buffer": 0,
      "byteOffset": 49320,
      "byteLength": 49320,
      "target": 34962,
      "byteStride": 12
    },
    {
      "buffer": 0,
      "byteOffset": 98640,
      "byteLength": 49320,
      "target": 34962,
      "byteStride": 12
    },
    {
      "buffer": 0,
      "byteOffset": 147960,
      "byteLength": 17424,
      "target": 34962,
      "byteStride": 12
    },
    {
      "buffer": 0,
      "byteOffset": 165384,
      "byteLength": 17424,
      "target": 34962,
      "byteStride": 12
    },
    {
      "buffer": 0,
      "byteOffset": 182808,
      "byteLength": 17424,
      "target": 34962,
      "byteStride": 12
    },
    {
      "buffer": 0,
      "byteOffset": 200232,
      "byteLength": 17712,
      "target": 34962,
      "byteStride": 12
    },
    {
      "buffer": 0,
      "byteOffset": 217944,
      "byteLength": 17712,
      "target": 34962,
      "byteStride": 12
    },
    {
      "buffer": 0,
      "byteOffset": 235656,
      "byteLength": 17712,
      "target": 34962,
      "byteStride": 12
    }
  ],
  "buffers": [
    {
      "byteLength": 253368,
      "uri": "data:application/octet-stream;base64,"
    }
  ]
}